#!OML:ASF H:\BreakDance\Project 1\Capture day 1\Session 1\Male.ASF
:FULLY-SPECIFIED
:DEGREES
921
root 7.48668 15.4295 2.44864 190.444 -114.516 170.395
lowerback 1.43196 1.55265 1.73996
upperback 7.33812 1.97938 -1.71993
thorax 6.96598 1.08659 -2.68618
lowerneck -4.66654 -5.49082 0.965033
upperneck 16.9332 -9.11045 7.43154
head 6.21848 -3.93132 1.55262
rclavicle -5.1684e-015 1.27222e-014
rhumerus 14.9967 3.56075 -64.7573
rradius 48.7023
rwrist 17.8299
rhand -46.702 -52.4113
rfingers 7.12502
rthumb -19.4207 -81.4615
lclavicle -5.1684e-015 1.27222e-014
lhumerus 35.972 -31.6739 56.8594
lradius 48.4314
lwrist -15.3128
lhand -44.012 -41.3908
lfingers 7.12502
lthumb -16.8327 -12.1004
rfemur -19.464 -10.2889 9.54126
rtibia 51.459
rfoot -22.9624 -6.80025
rtoes -29.7736
lfemur -19.5752 15.7979 -8.78424
ltibia 55.4086
lfoot -37.4301 7.84474
ltoes -42.2799
922
root 7.5173 15.4518 2.42878 190.551 -114.292 170.389
lowerback 1.56114 1.5857 1.56581
upperback 7.27156 2.02669 -1.67226
thorax 6.81274 1.09584 -2.53983
lowerneck -4.49995 -5.4827 0.855531
upperneck 16.6092 -9.04157 7.41888
head 6.08764 -3.91977 1.58001
rclavicle -6.16232e-014 2.38542e-014
rhumerus 14.8772 3.9885 -64.6304
rradius 48.8831
rwrist 17.2315
rhand -46.4092 -50.8143
rfingers 7.12502
rthumb -19.1392 -79.8926
lclavicle -6.16232e-014 2.38542e-014
lhumerus 35.6148 -31.5983 56.9273
lradius 48.6126
lwrist -15.0872
lhand -43.6631 -40.7956
lfingers 7.12502
lthumb -16.4968 -11.477
rfemur -19.8269 -9.97548 9.59258
rtibia 51.4882
rfoot -22.6472 -6.69274
rtoes -29.6685
lfemur -19.6833 15.5321 -8.92288
ltibia 55.2094
lfoot -37.2394 7.88494
ltoes -41.8606
923
root 7.54794 15.4743 2.40953 190.624 -114.117 170.453
lowerback 1.66839 1.60514 1.39016
upperback 7.20597 2.05571 -1.63083
thorax 6.6724 1.09678 -2.39986
lowerneck -4.29558 -5.49241 0.757613
upperneck 16.227 -8.98774 7.38533
head 5.93136 -3.91856 1.59973
rclavicle 2.66371e-014 7.15625e-015
rhumerus 14.7337 4.4984 -64.4528
rradius 49.0953
rwrist 16.534
rhand -45.9818 -49.2002
rfingers 7.12502
rthumb -18.7282 -78.3186
lclavicle 2.66371e-014 7.15625e-015
lhumerus 35.2755 -31.5449 56.9957
lradius 48.7756
lwrist -14.8337
lhand -43.2724 -40.2084
lfingers 7.12502
lthumb -16.1206 -10.8588
rfemur -20.2408 -9.8667 9.61925
rtibia 51.5654
rfoot -22.3277 -6.45297
rtoes -29.1117
lfemur -19.8651 15.2405 -9.10897
ltibia 55.0509
lfoot -37.0411 8.0282
ltoes -41.5154
924
root 7.57861 15.4966 2.39094 190.669 -114.001 170.58
lowerback 1.7618 1.60873 1.23642
upperback 7.13724 2.06346 -1.6021
thorax 6.53717 1.08942 -2.28628
lowerneck -4.06841 -5.51517 0.655634
upperneck 15.7966 -8.94556 7.34617
head 5.75699 -3.92505 1.61883
rclavicle 2.10712e-014 -7.95139e-016
rhumerus 14.5487 5.04172 -64.2609
rradius 49.3352
rwrist 15.8272
rhand -45.4199 -47.5482
rfingers 7.12502
rthumb -18.1877 -76.7179
lclavicle 2.10712e-014 -7.95139e-016
lhumerus 34.9524 -31.516 57.0665
lradius 48.9135
lwrist -14.565
lhand -42.8366 -39.6736
lfingers 7.12502
lthumb -15.701 -10.2906
rfemur -20.6994 -9.96312 9.62852
rtibia 51.685
rfoot -21.9776 -6.1331
rtoes -28.3109
lfemur -20.1345 14.9314 -9.33505
ltibia 54.9517
lfoot -36.8148 8.28715
ltoes -41.3115
925
root 7.60941 15.5178 2.37279 190.692 -113.955 170.75
lowerback 1.86363 1.59114 1.12324
upperback 7.06435 2.04261 -1.58769
thorax 6.39381 1.07102 -2.21189
lowerneck -3.8555 -5.53853 0.559911
upperneck 15.3522 -8.90276 7.2934
head 5.58051 -3.93102 1.63255
rclavicle -5.24792e-014 2.8625e-014
rhumerus 14.3118 5.57989 -64.0935
rradius 49.6002
rwrist 15.1685
rhand -44.7421 -45.8024
rfingers 7.12502
rthumb -17.5355 -75.0316
lclavicle -5.24792e-014 2.8625e-014
lhumerus 34.6339 -31.5245 57.112
lradius 49.0438
lwrist -14.25
lhand -42.3474 -39.2066
lfingers 7.12502
lthumb -15.2298 -9.7872
rfemur -21.1833 -10.2367 9.63176
rtibia 51.8407
rfoot -21.5775 -5.76575
rtoes -27.3393
lfemur -20.4864 14.5976 -9.58068
ltibia 54.9257
lfoot -36.5601 8.6252
ltoes -41.2458
926
root 7.64052 15.5373 2.35507 190.728 -113.986 170.92
lowerback 1.98155 1.54666 1.07004
upperback 6.98692 1.98497 -1.58024
thorax 6.23767 1.03821 -2.1801
lowerneck -3.66892 -5.55647 0.454935
upperneck 14.9058 -8.8526 7.23367
head 5.4084 -3.93285 1.64536
rclavicle 2.5842e-014 -2.38542e-015
rhumerus 14.0279 6.12287 -63.9541
rradius 49.8897
rwrist 14.5287
rhand -44.0167 -43.9416
rfingers 7.12502
rthumb -16.8373 -73.2316
lclavicle 2.5842e-014 -2.38542e-015
lhumerus 34.2381 -31.5707 57.1452
lradius 49.2346
lwrist -13.8769
lhand -41.7784 -38.7765
lfingers 7.12502
lthumb -14.6817 -9.31634
rfemur -21.6871 -10.6572 9.64836
rtibia 52.0267
rfoot -21.1294 -5.37906
rtoes -26.3038
lfemur -20.9188 14.2362 -9.81811
ltibia 54.9812
lfoot -36.2891 8.98544
ltoes -41.2768
927
root 7.67188 15.5543 2.33754 190.821 -114.094 171.038
lowerback 2.11279 1.47613 1.08609
upperback 6.90631 1.89133 -1.56745
thorax 6.07162 0.991301 -2.18283
lowerneck -3.48866 -5.57504 0.342866
upperneck 14.4351 -8.79858 7.153
head 5.22971 -3.93402 1.65329
rclavicle 3.45885e-014 5.56597e-015
rhumerus 13.6702 6.57063 -63.9227
rradius 50.2259
rwrist 14.0108
rhand -43.2522 -41.8936
rfingers 7.12502
rthumb -16.1012 -71.2447
lclavicle 3.45885e-014 5.56597e-015
lhumerus 33.738 -31.6509 57.1762
lradius 49.5204
lwrist -13.4253
lhand -41.0776 -38.3552
lfingers 7.12502
lthumb -14.0064 -8.84709
rfemur -22.2099 -11.1919 9.70251
rtibia 52.2384
rfoot -20.6513 -5.00459
rtoes -25.3541
lfemur -21.428 13.8505 -10.0165
ltibia 55.12
lfoot -36.016 9.30971
ltoes -41.3204
928
root 7.70351 15.5685 2.31971 190.974 -114.28 171.092
lowerback 2.25928 1.38171 1.14631
upperback 6.82865 1.76445 -1.53207
thorax 5.89939 0.929512 -2.18768
lowerneck -3.29805 -5.59558 0.230997
upperneck 13.9182 -8.73819 7.03255
head 5.0336 -3.9348 1.65044
rclavicle 3.43897e-014 7.95139e-016
rhumerus 13.2574 7.01879 -63.9106
rradius 50.6386
rwrist 13.5182
rhand -42.4332 -39.7489
rfingers 7.12502
rthumb -15.3125 -69.162
lclavicle 3.43897e-014 7.95139e-016
lhumerus 33.1295 -31.7441 57.2412
lradius 49.9018
lwrist -12.8972
lhand -40.2065 -37.9404
lfingers 7.12502
lthumb -13.1668 -8.37614
rfemur -22.7405 -11.8093 9.79907
rtibia 52.4743
rfoot -20.1691 -4.6508
rtoes -24.515
lfemur -21.9983 13.4448 -10.1587
ltibia 55.3378
lfoot -35.756 9.53394
ltoes -41.2479
929
root 7.73535 15.5799 2.30141 191.184 -114.529 171.084
lowerback 2.41472 1.27038 1.22306
upperback 6.75344 1.61387 -1.46106
thorax 5.72296 0.85559 -2.16488
lowerneck -3.09445 -5.61408 0.0926234
upperneck 13.355 -8.66808 6.89347
head 4.82174 -3.93333 1.6479
rclavicle 5.4467e-014 -7.15625e-015
rhumerus 12.7825 7.47949 -63.8917
rradius 51.1647
rwrist 13.0386
rhand -41.4904 -37.5242
rfingers 7.12502
rthumb -14.4041 -67.0044
lclavicle 5.4467e-014 -7.15625e-015
lhumerus 32.4358 -31.8427 57.37
lradius 50.3594
lwrist -12.286
lhand -39.1648 -37.5266
lfingers 7.12502
lthumb -12.1626 -7.90013
rfemur -23.2799 -12.482 9.93371
rtibia 52.735
rfoot -19.7107 -4.29693
rtoes -23.685
lfemur -22.6254 13.039 -10.2419
ltibia 55.6253
lfoot -35.5054 9.63322
ltoes -41.006
